<svg xmlns="http://www.w3.org/2000/svg" width="256" height="256"><path fill-opacity=".016" d="M0 128.004v128.004l128.25-.254 128.25-.254.254-127.75L257.008 0H0v128.004m.485.496c0 70.4.119 99.053.265 63.672.146-35.38.146-92.98 0-128C.604 29.153.485 58.1.485 128.5" fill="#1976D2" fill-rule="evenodd"/><path fill-opacity=".207" d="M159.5.96c-2.2.48-5.267 1.361-6.815 1.957-1.548.596-4.154 1.083-5.79 1.083-5.362 0-21.298 9.513-30.671 18.309C98.32 39.111 88.746 58.071 88.576 77.061l-.076 8.562-5.854-3.779c-9.252-5.971-15.841-8.096-26.699-8.609-16.801-.794-29.201 4.111-40.722 16.11-12.077 12.576-17.203 29.216-14.003 45.457 3.417 17.346 13.38 30.478 28.878 38.064 4.845 2.371 10.936 4.492 14.393 5.009 11.349 1.701 24.26-.409 33.383-5.455 5.045-2.79 5.124-2.809 5.124-1.249 0 .644.745 1.994 1.655 3 1.553 1.716 1.527 1.829-.427 1.829-2.084 0-6.228 4.264-6.228 6.407 0 .626-1.599 1.999-3.554 3.052-8.906 4.796-24.32 23.375-28.548 34.408C42.661 228.315 41.886 251 44.835 251c.438 0 1.814-2.453 3.057-5.452 2.646-6.385 7.347-10.959 16.003-15.573 3.409-1.817 8.041-5.142 10.293-7.389 2.808-2.802 3.907-3.457 3.497-2.086-.841 2.814-3.231 13.564-5.113 23-.877 4.4-1.867 9.012-2.2 10.25-.958 3.563 1.352 2.635 2.49-1 .559-1.787 1.957-7.975 3.106-13.75 2.563-12.875 8.421-33.789 9.87-35.238.755-.755 1.418-.294 2.271 1.578.936 2.055 2.538 3.019 7.179 4.321l5.974 1.676-.666 8.817c-.366 4.849-1.775 14.49-3.131 21.425C96.109 248.514 95 254.596 95 255.094c0 .5 6.506.906 14.5.906 7.975 0 14.492-.338 14.483-.75-.033-1.433-8.655-27.8-11.887-36.354l-3.251-8.604-8.142-1.86c-6.708-1.532-8.806-2.505-11.922-5.529-2.08-2.018-3.781-4.37-3.781-5.227 0-.857-.45-1.836-1-2.176-.55-.34-1-2.421-1-4.625 0-2.203-.496-4.934-1.103-6.067-1.82-3.4.345-6.806 4.332-6.817 1.799-.004 5.636-.292 8.527-.64 4.327-.519 5.053-.876 4.108-2.015-1.79-2.157-.498-2.559 5.727-1.781 7.256.906 8.749 2.466 13.796 14.415 2.138 5.062 4.886 10.402 6.106 11.867 1.219 1.464 2.794 4.463 3.499 6.663 1.931 6.03 5.521 12.796 13.529 25.5 3.987 6.325 8.657 14.313 10.378 17.75l3.13 6.25h14.863l8.383-12.75c4.61-7.013 9.915-15.644 11.789-19.181 4.153-7.838 8.64-12.364 13.788-13.907 5.488-1.644 7.899-1.461 12.946.982 9.87 4.778 10.983 20.157 2.368 32.721-.994 1.449-3.044 4.794-4.556 7.432l-2.75 4.798 6.739-.298 6.738-.297 2.138-6.415 2.139-6.416 1.804 6.666 1.804 6.665H253l-.02-4.25c-.059-12.665-3.819-27.023-8.525-32.553-4.07-4.784-3.576-6.078 2.078-5.44 4.883.55 7.467-.792 7.467-3.879 0-1.541-.763-1.88-4.25-1.888-5.511-.012-13.421-3.735-20.58-9.684l-6.562-5.451c-.49-.406.491-2.902 2.18-5.547 5.708-8.934 19.702-38.734 23.523-50.089 4.562-13.559 6.83-28.848 6.857-46.219.026-16.95-1.751-24.618-9.271-40-5.887-12.043-6.537-12.921-17.754-24.002-9.699-9.582-13.146-12.284-20.643-16.18C193.881 3.741 184.271.849 173.002.435 167.776.243 161.7.479 159.5.96m-28.263 51.413c-4.022 6.041-7.609 12.767-10.472 19.639l-1.464 3.512 7.191-.363c5.912-.299 7.974.031 11.599 1.854 4.822 2.426 7.909 4.822 7.909 6.14 0 1.369-2.654.967-3.955-.6-2.799-3.373-16.179-5.931-21.738-4.156-5.207 1.662-9.357 29.692-7.27 49.101.651 6.05 1.768 12.125 2.482 13.5 1.762 3.391 17.838 18.871 23.806 22.923 7.541 5.121 19.067 10.077 23.432 10.077 4.64 0 17.927-6.221 32.11-15.033 11.826-7.348 13.808-8.992 15.206-12.616 2.371-6.146 6.966-28.301 7.574-36.518l.641-8.666-8.394-4.193c-4.617-2.306-10.869-5.681-13.894-7.499-5.016-3.015-5.896-3.229-10-2.434-6.005 1.163-8 1.157-8-.027 0-.542 2.006-1.49 4.459-2.108l4.458-1.123-5.25-4.277c-2.888-2.352-10.318-9.616-16.511-16.142L153.897 51.5l2.681 5.5c1.474 3.025 4.647 8.552 7.051 12.281 2.404 3.73 4.371 6.981 4.371 7.225 0 .924-5.329-1.636-9.826-4.719-6.006-4.119-14.282-12.754-19.083-19.914l-3.774-5.626-4.08 6.126m92.866 36.21c-3.999 4.721-7.12 8.679-6.937 8.797.655.422 5.935 2.62 6.291 2.62.2 0 3.104-3.433 6.453-7.629 6.594-8.26 7.849-12.371 3.777-12.371-1.674 0-4.325 2.374-9.584 8.583M43.5 84.409c-20.696 5.128-33.553 22.842-32.299 44.5.387 6.682 1.083 9.281 4.148 15.482 5.413 10.953 15.693 19.419 26.901 22.155 2.523.615 2.75.431 2.75-2.235 0-3.765 4.983-8.608 15.177-14.748 4.222-2.543 9.06-5.916 10.75-7.495 2.878-2.689 3.067-3.304 2.973-9.719-.109-7.493-.922-11.522-2.428-12.027-.599-.202-.855 3.416-.668 9.426.23 7.39-.053 10.236-1.168 11.75-.81 1.1-1.768 1.703-2.13 1.342-.815-.815-1.39-7.199-1.456-16.163-.044-5.945-.275-6.781-1.8-6.489-1.494.285-1.845 1.964-2.397 11.46-.355 6.119-.948 12.076-1.317 13.239-1.153 3.633-4.375 2.376-3.555-1.387.692-3.177-.145-21.993-1.026-23.054-.733-.884-.734-1.464-.004-1.916.577-.356 1.056-1.409 1.064-2.339.009-.93.435-2.354.948-3.165.791-1.25 1.286-1.14 3.275.728 2.082 1.956 2.773 2.082 6.207 1.133 4.57-1.261 7.649-.199 10.052 3.468 2.171 3.313 3.014 14.872 1.587 21.743-1.018 4.9-1.668 5.929-5.213 8.25-2.228 1.459-4.492 2.652-5.033 2.652-2.2 0-9.724 5.271-15.838 11.096l-6.5 6.193 8.71-.531c6.896-.421 10.073-1.17 15.258-3.596 27.067-12.667 33.474-47.362 12.599-68.226C72.255 85.13 57.702 80.89 43.5 84.409m80.775 4.562C119.68 90.063 116 92.728 116 94.965c0 1.812.237 1.783 4.25-.511 5.529-3.161 7.848-3.256 4.996-.204-2.862 3.062-4.665 10.517-3.369 13.927 2.312 6.082 8.687 8.868 14.619 6.389 3.469-1.449 6.504-5.89 6.504-9.516 0-1.128.45-2.05 1-2.05 2.061 0 .951-5.905-1.703-9.059-4.46-5.301-10.093-6.854-18.022-4.97M31.25 91.667c-1.514.605-1.645 5.726-.215 8.399.57 1.064 1.807 1.941 2.75 1.949 2.843.026 3.996 1.301 4.735 5.237.678 3.619.604 3.749-2.159 3.763-1.781.009-4.371 1.292-6.861 3.398l-4 3.384v11.351c0 13.717 1.127 16.718 7.013 18.682 3.133 1.045 5.093 1.088 9.147.199 7.223-1.585 9.783-4.307 11.383-12.104 3.082-15.021.077-23.1-9.485-25.5-2.428-.609-2.521-.808-1.104-2.374.85-.94 1.546-2.227 1.546-2.861 0-.633 1.237-1.423 2.75-1.754 1.513-.332 3.227-.744 3.811-.915 1.337-.394 3.739-8.226 2.926-9.542-1.354-2.191-4.212-.93-5.128 2.264-.511 1.784-1.701 3.392-2.644 3.573-1.364.263-1.715-.408-1.715-3.274 0-2.383-.543-3.813-1.601-4.219-1.983-.761-3.364 1.279-3.384 5-.023 4.245-3.361 3.201-4.015-1.255-.505-3.443-1.466-4.315-3.75-3.401m34.962.583c-.568.688-1.348 2.938-1.734 5-.41 2.197-1.276 3.75-2.089 3.75-1.427 0-1.729-.956-1.45-4.586.089-1.147-.505-2.639-1.319-3.315-1.207-1.001-1.678-.859-2.55.771-2.703 5.05-.08 11.13 4.803 11.13 1.218 0 2.142.563 2.052 1.25-.649 5.001 2.376 6.72 4.055 2.304.683-1.799 1.935-2.614 4.725-3.078 6.311-1.051 6.295-1.033 6.295-6.945C79 94.47 78.63 93 77.607 93 76.098 93 75 95.095 75 97.975c0 1.816-1.862 3.025-4.661 3.025-1.142 0-1.342-.708-.844-2.978.696-3.167-.095-7.022-1.44-7.022-.446 0-1.275.563-1.843 1.25m61.427 4.444c-1.126 1.126-.685 2.306.861 2.306.825 0 1.5-.423 1.5-.941 0-1.261-1.562-2.164-2.361-1.365M190 99.769c-4.66.57-10 3.444-10 5.383 0 2.221-.258 2.203 5 .348 5.504-1.942 5.419-1.985 2.877 1.453-4.56 6.167-2.281 15.546 4.596 18.915 6.544 3.206 14.433-2.998 14.606-11.486.043-2.135.306-3.319.583-2.632.802 1.986 2.338 1.45 2.338-.816 0-6.727-10.113-12.373-20-11.165M102.158 104c0 1.375.227 1.938.504 1.25.278-.687.278-1.812 0-2.5-.277-.687-.504-.125-.504 1.25M191 108.417c0 .87.713 1.583 1.583 1.583.871 0 1.406-.534 1.188-1.187-.618-1.855-2.771-2.162-2.771-.396M44.026 117.25c.015.688.878 3.05 1.919 5.25 1.756 3.711 1.899 3.806 1.974 1.315.102-3.376-1.542-7.815-2.894-7.815-.564 0-1.013.563-.999 1.25m183.949.032c-1.237.988-4.058 9.006-7.681 21.83-.252.892.276 1.893 1.181 2.24 2.663 1.022 7.731-1.736 12.275-6.682 3.651-3.974 4.25-5.243 4.25-9.013 0-7.386-5.506-11.985-10.025-8.375M31.88 118.5c-.339.55-.906 2.8-1.259 5l-.641 4 1.572-2.807c1.437-2.567 1.751-8.498.328-6.193m6.728 2.635c-.48 2.218-2.311 5.122-4.698 7.453-2.304 2.249-3.91 4.761-3.91 6.115 0 2.906.678 2.88 5.215-.203 2.023-1.375 4.13-2.5 4.681-2.5.551 0 2.219 1.596 3.707 3.546 1.838 2.41 3.032 3.219 3.724 2.527.991-.991-2.82-9.451-5.889-13.073-.699-.825-1.444-2.85-1.656-4.5l-.386-3-.788 3.635m189.843-2.056c-.414.67-.019 1.583.909 2.102 2.299 1.287 2.046 3.421-.86 7.23-1.375 1.803-2.5 3.573-2.5 3.933 0 1.392 2.952.568 3.92-1.094.958-1.646 1.021-1.641 1.05.083.046 2.826 2.393 1.384 3.386-2.08 1.42-4.949-3.692-13.755-5.905-10.174M150 129.112c0 .677-.719 2.025-1.598 2.996-1.917 2.119-1.279 3.387 2.754 5.473 3.909 2.021 4.62 1.221 1.94-2.185-1.21-1.539-1.89-3.47-1.573-4.469.307-.967.09-2.048-.482-2.402-.573-.354-1.041-.089-1.041.587M34.75 139.115c-3.552 2.65-3.465 3.33.586 4.573 4.731 1.452 7.218-.377 5.535-4.071-1.425-3.128-2.484-3.215-6.121-.502M139 147.418c0 .855 2.683 2.344 6.75 3.747 5.54 1.911 8.68 2.312 17.513 2.235 10.874-.093 12.971-.566 11.045-2.492-.744-.744-2.898-.696-7.263.163-7.339 1.444-17.713.025-22.906-3.133-3.789-2.304-5.139-2.44-5.139-.52m-44.302 10.747l-3.803 4.93 2.134 3.452c2.254 3.647 5.124 4.753 4.316 1.664-.265-1.014.426-2.599 1.593-3.655 2-1.81 2.123-1.811 4.089-.032 1.806 1.635 1.737 1.189-.636-4.095-1.465-3.261-2.939-6.214-3.277-6.561-.338-.348-2.325 1.586-4.416 4.297m5.302 8.86c0 .563 1.154 1.463 2.565 2 4.272 1.624 5.135 1.089 1.661-1.029-3.742-2.281-4.226-2.392-4.226-.971m43.924 6.126c-.095 4.18-2.177 10.1-3.734 10.619-.806.269-.984-.549-.571-2.616l.601-3.006-9.01-.324-9.011-.324-.458 6c-.499 6.523 1.601 12.524 5.446 15.567 1.09.863 2.802 4.532 3.808 8.16 1.882 6.787 8.12 17.773 10.091 17.773.612 0 2.705.756 4.652 1.68 3.139 1.49 4.518 1.541 12.152.455 9.756-1.389 16.448-4.249 28.906-12.353 6.376-4.148 9.2-6.758 12.202-11.279 4.606-6.936 4.38-7.314-5.962-9.994-7.267-1.883-14.389-5.025-16.121-7.111-.776-.935-1.007-3.658-.669-7.874l.517-6.444-3.79 1.934c-7.897 4.028-16.251 3.295-25.654-2.253L144 169.802l-.076 3.349m-30.286-.651c.317.825 1.033 1.5 1.591 1.5.586 0 .489-.635-.229-1.5-.685-.825-1.401-1.5-1.591-1.5-.19 0-.087.675.229 1.5M139 174c-2.409 1.884-2.422 1.956-.367 1.978 1.304.013 2.337-.756 2.657-1.978.287-1.1.452-1.99.366-1.978-.086.012-1.281.902-2.656 1.978m40.626.531c-.344.898-.626 3.77-.626 6.382 0 5.255.096 5.344 9.623 8.995 4.707 1.803 14.377 3.588 14.377 2.653 0-.219-1.687-1.421-3.75-2.672-2.062-1.251-7.181-5.585-11.374-9.632-5.999-5.79-7.757-7.01-8.25-5.726m41.502 26.054c.582 2.153 1.45 4.327 1.93 4.83.479.503.396-.847-.186-3-.582-2.153-1.45-4.327-1.93-4.83-.479-.503-.396.847.186 3m5.715.061c1.738 2.281 4.51 5.591 6.159 7.356 2.111 2.26 2.998 4.213 2.998 6.604 0 3.349-.581 3.82-4.25 3.446-.963-.098-1.75.301-1.75.885 0 .585 1.313 1.063 2.918 1.063 2.272 0 3.412-.797 5.143-3.599l2.225-3.6-8.302-8.15c-5.224-5.129-7.13-6.614-5.141-4.005M240 208.911c2.919 2.388 8.229 3.641 10.742 2.535 1.256-.552.31-.975-3.313-1.479-2.789-.388-6.164-1.244-7.5-1.903l-2.429-1.198 2.5 2.045m-57.766 11.636c-6.302 4.346-15.651 8.453-19.24 8.453-1.223 0-1.739.502-1.406 1.369.321.837-.37 1.608-1.781 1.986-4.461 1.195-8.174.62-12.548-1.943-2.429-1.424-4.595-2.409-4.814-2.19-.219.219 1.728 3.844 4.328 8.054l4.727 7.657 4.656.033c3.966.029 5.746-.706 12-4.952 14.655-9.95 17.187-12.259 19.104-17.424.993-2.672 1.677-4.972 1.522-5.111-.155-.139-3.102 1.692-6.548 4.068m-26.484 10.115c.688.278 1.813.278 2.5 0 .688-.277.125-.504-1.25-.504s-1.937.227-1.25.504m8.784 2.985c-8.265 3.581-10.849 5.118-6.534 3.889 3.609-1.028 15-6.331 15-6.983 0-.304-.113-.509-.25-.455-.137.055-3.835 1.652-8.216 3.549" fill="#1976D2" fill-rule="evenodd"/><path fill-opacity=".603" d="M161.39 1.027c-2.811.504-6.411 1.445-8 2.091-1.59.646-4.136 1.074-5.658.951-3.383-.273-15.54 6.12-25.076 13.188-9.889 7.328-20.844 20.392-26.201 31.243C90.815 59.925 89 67.169 89 78.257v8.837l-3.75-2.985C76.941 77.496 63.94 73.03 53 73.03c-22.991 0-44.586 16.705-50.547 39.101-3.102 11.652-1.286 27.77 4.313 38.294 4.125 7.754 15.505 18.683 23.234 22.312 15.262 7.168 32.602 7.059 47.116-.296 2.796-1.416 5.174-2.433 5.286-2.258 3.719 5.805 3.688 5.665 1.327 6-1.342.191-2.979 1.717-4.114 3.837-1.036 1.936-4.112 5.055-6.834 6.933-2.723 1.877-7.95 6.671-11.616 10.653-11.776 12.794-16.937 23.609-17.904 37.521-.549 7.9.224 14.873 1.648 14.873.451 0 1.583-1.999 2.516-4.442 2.297-6.016 7.694-11.269 16.483-16.044 4.035-2.192 9.014-5.891 11.065-8.22l3.727-4.235-2.211 9.72c-1.216 5.347-2.915 13.321-3.776 17.721-.861 4.4-1.871 8.787-2.246 9.75-.377.969-.225 1.75.341 1.75.562 0 1.783-3.487 2.715-7.75 4.171-19.094 8.803-37.112 10.589-41.192l1.945-4.441 2.915 3.191c1.603 1.756 3.773 3.192 4.822 3.192s3.271.475 4.937 1.056l3.03 1.056-.448 6.694c-.246 3.682-1.542 12.878-2.88 20.437C94.915 258.115 93.537 256 110 256c7.7 0 14-.152 14-.338 0-.862-14.063-41.91-14.88-43.434-.61-1.137-3.865-2.397-9.522-3.684-6.288-1.432-8.747-2.438-9.164-3.751-.313-.988-1.395-2.237-2.404-2.777-2.521-1.349-6.096-9.046-5.414-11.654.306-1.171-.149-3.492-1.011-5.158-1.441-2.787-1.428-3.199.164-5.14 1.41-1.718 3.266-2.226 10-2.737 7.977-.604 8.211-.692 6.59-2.483-.924-1.021-1.495-2.02-1.27-2.22.226-.2 3.336-.013 6.911.416 7.948.954 9.169 2.242 15.488 16.335 2.435 5.431 5.175 10.7 6.088 11.709.913 1.008 2.699 4.808 3.969 8.444 1.271 3.635 4.214 9.616 6.542 13.291 2.328 3.675 6.375 10.056 8.995 14.181 2.62 4.125 6.017 10.088 7.549 13.25l2.786 5.75 7.041-.02 7.042-.021 8.674-13.229c4.77-7.277 10.101-15.93 11.847-19.23 4.024-7.606 6.478-10.302 11.479-12.61 11.408-5.265 22.253.61 24.121 13.067.858 5.726-1.135 11.628-7.732 22.887-2.689 4.589-4.889 8.527-4.889 8.75 0 .223 2.669.406 5.93.406h5.93l2.216-7.021c1.219-3.861 2.396-6.841 2.615-6.621.22.22 1.173 3.267 2.118 6.771l1.717 6.371 9.737.286c7.421.218 9.735-.02 9.729-1-.005-.707-.459-5.336-1.01-10.286-1.36-12.215-4.205-21.238-8.002-25.376-4.099-4.468-3.372-6.269 2.233-5.532 5.24.69 8.583-1.239 7.274-4.197-.77-1.739-.873-1.7-1.248.474-.38 2.202-.762 2.335-5.413 1.888-3.701-.355-5.697-1.18-7.665-3.167l-2.661-2.686 4.5 2.026c4.802 2.162 10 2.718 10 1.07 0-.55-1.463-1.004-3.25-1.01-4.761-.014-12.463-3.965-19.17-9.835-3.24-2.835-6.315-5.155-6.834-5.155-.518 0 .031-1.462 1.221-3.25 5.336-8.014 21.881-43.171 25.295-53.75 4.837-14.986 7.213-33.706 6.409-50.5-.72-15.035-2.069-19.949-9.708-35.346-5.1-10.279-7.409-13.69-13.794-20.376-9.46-9.905-17.191-15.5-29.317-21.219-15.007-7.076-28.747-9.634-40.462-7.532m-29.829 49.889C128.599 54.952 119 73.511 119 75.204c0 .259 3.487.439 7.75.398 6.33-.059 8.574.363 12.247 2.309 4.173 2.21 7.324 5.102 6.479 5.947-.199.198-1.662-.566-3.252-1.698-4.784-3.407-14.199-5.564-19.809-4.539-4.636.847-4.88 1.061-6.131 5.381-4.091 14.124-5.377 33.997-3.209 49.586.956 6.869 1.542 8.288 5.25 12.716 7.214 8.612 20.527 19.358 29.949 24.174 12.194 6.233 16.38 6.222 28.912-.071 10.472-5.26 28.663-16.467 31.032-19.118 3.571-3.998 9.782-31.118 9.782-42.715v-7.206l-6.181-2.934c-3.399-1.614-9.587-4.878-13.75-7.253-7.836-4.472-9.232-4.665-17.968-2.487-1.51.376-2.165.219-1.767-.425.348-.563 2.689-1.541 5.203-2.174l4.572-1.151-4.805-3.807c-4.424-3.507-21.542-20.586-27.699-27.637l-2.62-3 1.99 4.792c2.356 5.674 6.4 12.912 9.79 17.524 1.34 1.823 2.179 3.573 1.864 3.889-.316.315-3.106-.952-6.202-2.816-6.338-3.817-15.739-13.377-21.117-21.477-1.976-2.977-3.716-5.412-3.866-5.412-.151 0-1.898 2.212-3.883 4.916m92.518 37.271c-3.917 4.503-6.984 8.597-6.817 9.099.167.502 1.718 1.507 3.446 2.233l3.142 1.321 5.825-7.43c3.204-4.087 6.106-8.776 6.449-10.42.574-2.751.402-2.99-2.15-2.99-2.227 0-4.181 1.617-9.895 8.187M40.487 84.799c-20.591 7.12-33.161 27.187-29.63 47.301 4.938 28.129 34.467 44.018 60.073 32.325 29.408-13.428 33.725-53.96 7.782-73.058-10.653-7.842-26.611-10.584-38.225-6.568m79.763 6.174c-2.34 1.062-4.25 2.625-4.25 3.478 0 1.929-.408 2.001 5.419-.955 6.427-3.261 8.714-3.276 5.217-.034C123.357 96.5 122 99.92 122 105.142c0 7.687 7.881 12.148 15.405 8.719 2.507-1.142 5.595-6.261 5.595-9.276 0-.887.522-2.448 1.161-3.471.941-1.507.734-2.548-1.097-5.51-1.241-2.009-3.541-4.317-5.111-5.128-3.99-2.064-12.594-1.822-17.703.497m-88.521 1.159C28.055 94.188 31.001 102 35.45 102c2.559 0 3.55 1.667 3.55 5.97 0 2.381-.498 2.901-3.282 3.423-1.805.339-4.665 1.879-6.356 3.424-2.858 2.61-3.122 3.439-3.751 11.745-1.146 15.131 2.316 21.654 11.582 21.822 5.429.098 11.907-3.04 13.587-6.583 1.787-3.767 3.698-17.76 2.874-21.043-1.135-4.523-6.415-9.758-9.841-9.758-1.639 0-2.795-.338-2.569-.75.226-.412 1.037-2.213 1.803-4 1.071-2.503 2.003-3.25 4.05-3.25 3.421 0 4.947-1.912 5.638-7.062.49-3.649.335-4.098-1.304-3.782-1.089.209-2.246 1.702-2.79 3.601C47.964 98.116 47.127 99 45.568 99c-1.684 0-2.194-.671-2.382-3.138-.131-1.726-.521-3.594-.865-4.152C41.426 90.262 39 93.901 39 96.691 39 98.333 38.423 99 37 99c-1.613 0-2-.667-2-3.441 0-3.943-.818-4.8-3.271-3.427m33.878 1.45c-.334.87-.607 2.82-.607 4.333 0 3.387-.568 4.011-3.058 3.36C60.44 100.882 60 99.887 60 96.883 60 94.04 59.584 93 58.448 93c-1.244 0-1.492 1.038-1.25 5.217.284 4.914.488 5.27 3.498 6.129 2.374.678 3.274 1.567 3.5 3.456.438 3.662 2.401 3.794 3.638.243.941-2.697 1.511-3.045 4.992-3.045 4.939 0 6.38-1.709 5.985-7.098-.398-5.429-2.176-6.047-3.379-1.175-.764 3.092-1.429 3.83-3.682 4.089-2.645.305-2.75.142-2.75-4.25C69 93.33 68.594 92 67.607 92c-.766 0-1.666.712-2 1.582m61.566 4.077c.195 1.013 1.023 1.841 1.841 1.841 2.143 0 1.834-2.906-.355-3.327-1.336-.257-1.743.15-1.486 1.486m-25.171 4.338c-.803 1.5-.697 2.682.424 4.75l1.494 2.753.04-4.75c.044-5.214-.347-5.764-1.958-2.753m82.748-.339c-2.499 1.037-3.75 2.199-3.75 3.484 0 1.66.297 1.769 2.139.783 3.439-1.84 7.861-2.884 7.861-1.855 0 .511-.353.93-.784.93-1.581 0-4.216 5.91-4.216 9.454 0 4.3 2.243 9.07 4.945 10.516 1.058.567 3.563 1.03 5.566 1.03 5.391 0 9.176-4.167 10.102-11.122.393-2.958.904-4.815 1.135-4.128.58 1.732 2.252 1.572 2.252-.215 0-2.61-6.044-8.453-9.832-9.505-5.155-1.432-11.028-1.193-15.418.628m5.681 6.454c-.754 1.22 1.492 3.054 2.771 2.263.439-.271.798-1.141.798-1.934 0-1.697-2.577-1.935-3.569-.329M58 114.8c0 .99-.531 2.331-1.18 2.98-.906.906-.871 1.756.152 3.667.99 1.85 1.182 5.313.75 13.505-.559 10.588.152 14.098 2.092 10.326.502-.978 1.214-6.935 1.58-13.238.618-10.614 1.569-13.799 3.724-12.467.393.243 1.036 5.398 1.428 11.456.393 6.057 1.106 11.256 1.586 11.553 1.855 1.146 2.794-4.888 2.191-14.077-.458-6.971-.311-9.505.551-9.505 1.977 0 3.309 5.129 3.329 12.817.023 8.866-.829 10.01-12.995 17.464-11.003 6.74-15.09 10.473-15.844 14.469-.916 4.849 1.151 4.166 8.109-2.68 3.769-3.708 8.808-7.315 13.45-9.627C78.576 145.638 79 144.991 79 133.013c0-15.91-2.273-19.099-12.52-17.562-3.579.536-4.617.355-5.094-.889-.826-2.151-3.386-1.972-3.386.238m170.123 1.95c-1.336 1.114-3.332 5.845-5.491 13.011l-3.391 11.261 2.453.616c3.006.754 5.97-.526 10.572-4.567 7.189-6.311 8.421-14.112 3.073-19.459-3.072-3.072-4.379-3.228-7.216-.862m-183.355 3.917c2.247 6.053 4.654 7.161 3.667 1.688-.787-4.363-2.054-6.355-4.04-6.355-1.093 0-1.02.915.373 4.667m-6.54.391c-.805 3.163-2.395 5.7-5.194 8.29-3.754 3.473-5.118 6.864-3.231 8.03.441.273 2.943-.896 5.559-2.597l4.756-3.094 3.014 3.656c1.657 2.012 3.431 3.657 3.941 3.657 1.503 0 1.059-4.645-.573-6-.825-.685-1.5-1.683-1.5-2.218 0-.535-.897-2.233-1.994-3.774-1.097-1.54-2.36-4.534-2.806-6.654l-.813-3.854-1.159 4.558m-7.83-1.653c-.296.772-.371 2.91-.166 4.75l.373 3.345 1.697-3.718c.934-2.045 1.698-4.182 1.698-4.75 0-1.55-2.982-1.242-3.602.373m198.602.13c0 .295.74 1.665 1.644 3.045 1.578 2.407 1.537 2.622-1 5.269-3.45 3.602-3.577 6.376-.144 3.151l2.5-2.349.015 2.425c.013 1.932.212 2.12.985.924 1.489-2.304 1.179-8.299-.557-10.777-1.413-2.019-3.443-3.013-3.443-1.688m-78.864 10.144c-.075.648-.84 1.882-1.7 2.742-1.873 1.873-1.14 3.361 2.3 4.669 3.201 1.217 4.051.443 2.016-1.834-.863-.966-1.774-2.881-2.025-4.256-.25-1.375-.516-1.97-.591-1.321m-115.709 9.519l-3.643 3.199 3.707 1.284c3.714 1.285 7.509.442 7.509-1.669 0-1.608-2.29-6.012-3.126-6.012-.442 0-2.444 1.439-4.447 3.198m104.977 7.957c-.676 1.095 4.95 3.513 11.383 4.893 5.987 1.284 23.917.861 23.213-.548-.275-.55-1.625-.775-3-.5s-6.55.489-11.5.475c-7.628-.022-9.804-.421-14.274-2.616-2.901-1.425-5.521-2.191-5.822-1.704M98 152.859c0 .473-1.571 2.835-3.49 5.25-1.92 2.415-3.495 4.988-3.5 5.718-.016 2.125 5.631 7.173 8.024 7.173h2.188l-2.199-1.78c-2.182-1.767-2.184-1.799-.272-4.161l1.928-2.38 2.16 2.16c3.397 3.397 4.35 2.528 1.628-1.483-1.36-2.004-2.993-5.379-3.628-7.5-1.021-3.407-2.839-5.326-2.839-2.997m1.599 13.743c-.671 1.75 2.776 3.614 5.938 3.21 2.256-.289 2.145-.471-1.487-2.445-3.131-1.701-4.032-1.856-4.451-.765M113 172c1.175 1.65 2.59 3 3.144 3 1.167 0-3.233-5.862-4.462-5.945-.45-.03.143 1.295 1.318 2.945m30.448-1.084c.803 1.3-1.395 10.933-2.675 11.724-.707.438-.842-.23-.4-1.991l.665-2.649h-8.519c-5.959 0-8.519-.361-8.519-1.2 0-.902-.285-.915-1.146-.054-1.717 1.717-1.998 13.076-.4 16.153.743 1.43 2.708 4.304 4.366 6.385 1.659 2.081 3.3 5.469 3.648 7.527.348 2.059 2.297 6.815 4.332 10.569 3.327 6.138 4.204 7.024 8.7 8.791 6.224 2.445 17.434 1.948 25.687-1.14 5.203-1.947 22.001-12.082 25.955-15.659 2.155-1.951 7.858-10.634 7.858-11.965 0-1.104-2.749-2.227-14.11-5.761-11.127-3.462-12.164-4.618-11.729-13.075.187-3.616.059-6.574-.284-6.573-.342.001-2.769.951-5.392 2.112-6.293 2.784-14.015 2.27-21.317-1.417-5.514-2.785-7.7-3.362-6.72-1.777M107.8 172.2c.933.933 1.467.933 2.4 0 .933-.933.667-1.2-1.2-1.2s-2.133.267-1.2 1.2m30.231 1.921l-2.469 2.054 2.961-.337c1.852-.212 3.084-.993 3.292-2.088.432-2.281-.734-2.167-3.784.371m41.175 5.104l.294 7.225 6.89 2.862c3.79 1.574 9.415 3.104 12.5 3.4l5.61.538-7.112-5.054c-3.912-2.78-9.254-7.562-11.872-10.625-2.617-3.064-5.174-5.571-5.681-5.571-.508 0-.79 3.251-.629 7.225M217 196c-.825.533-1.05.969-.5.969s1.675-.436 2.5-.969c.825-.533 1.05-.969.5-.969s-1.675.436-2.5.969m6 .448c0 .553 10.098 12.845 11.165 13.591.423.296.897 2.096 1.053 4 .26 3.185.063 3.458-2.468 3.422-1.599-.023-2.75.5-2.75 1.25 0 .793 1.276 1.289 3.316 1.289 2.805 0 3.649-.593 5.477-3.845l2.161-3.845-8.355-8.155c-7.584-7.403-9.599-9.021-9.599-7.707m-2.994 1.302c.016 2.256 2.226 8.25 3.041 8.25 1.199 0 1.188-.615-.1-5.25-.572-2.062-1.47-3.75-1.994-3.75s-.95.338-.947.75M184.5 218.678c-9.851 6.8-21.454 11.161-30.312 11.392-2.355.062-2.44.168-.688.855 1.1.431 3.238.431 4.75 0 1.52-.434 2.75-.389 2.75.099 0 .487-1.687 1.203-3.75 1.591-3.124.587-4.731.17-9.625-2.497-3.231-1.76-6.068-3.008-6.303-2.773-.579.579 8.548 14.835 10.504 16.405 3.295 2.646 7.812 1.443 16.385-4.365 15.9-10.77 17.436-12.194 19.658-18.227 1.129-3.063 1.957-5.651 1.842-5.751-.116-.099-2.461 1.373-5.211 3.271m-72.5 9.631c0 .72.669 2.182 1.486 3.25 1.36 1.776 1.394 1.664.402-1.309-1.132-3.393-1.888-4.171-1.888-1.941" fill="#1976D2" fill-rule="evenodd"/><path fill-opacity=".975" d="M157.192 2.177c-2.37.53-4.548 1.586-4.839 2.346-.419 1.092-.925 1.137-2.402.215-6.138-3.834-33.041 14.957-46.15 32.233-9.688 12.768-15.229 28.888-14.629 42.559.18 4.111.275 7.474.21 7.472-.064-.001-3.131-2.023-6.814-4.493-30.811-20.661-72.811-3.802-80.447 32.29-4.884 23.087 6.941 47.423 27.955 57.53 14.836 7.135 30.818 7.238 45.485.292l7.062-3.343 1.914 3.111c2.83 4.599 2.83 4.611.201 4.611-2.655 0-5.738 2.777-5.738 5.168 0 .831-1.048 1.988-2.328 2.572-8.417 3.834-23.039 20.379-28.676 32.444-3.688 7.893-6.01 23.369-4.347 28.972l.992 3.344 1.93-3.189a241.037 241.037 0 003.61-6.21c1.781-3.203 5.293-5.874 15.819-12.029 3.619-2.116 8.012-5.745 9.912-8.187 2.661-3.42 3.263-3.835 2.736-1.885-.371 1.375-2.061 9.445-3.756 17.933-1.695 8.489-3.517 16.589-4.049 18-.708 1.876-.671 2.272.138 1.473.609-.602 2.423-7.352 4.03-15 6.763-32.176 10.815-42.272 14.086-35.093.771 1.693 2.576 2.699 6.729 3.75l5.674 1.437-.284 8.5c-.157 4.675-1.394 14.288-2.75 21.362C97.11 247.437 96 253.849 96 254.612c0 1.118 2.72 1.388 13.958 1.388h13.958l-7.308-21.55c-4.02-11.853-7.767-22.009-8.327-22.569-.56-.56-4.486-1.906-8.726-2.992-5.95-1.525-8.489-2.756-11.131-5.399-1.883-1.883-3.424-4.058-3.424-4.834 0-.776-.719-2.008-1.598-2.737-1.097-.911-1.436-2.321-1.082-4.504.297-1.831-.108-4.379-.955-6.013-2.996-5.775 1.015-8.364 13-8.391L99.23 177l-1.708-2.607-1.708-2.606 5.073.698c3.99.548 5.415.355 6.674-.903 1.902-1.902 4.091-1.072 2.435.923-.841 1.013-.637 1.474.863 1.95 1.874.595 5.139 6.432 10.218 18.27 1.233 2.875 3.295 6.215 4.582 7.425 1.288 1.209 2.352 2.908 2.365 3.774.05 3.357 5.009 13.422 12.678 25.731 4.402 7.065 9.683 15.882 11.737 19.595l3.733 6.75 6.664-.037 6.664-.036 2.903-4.714c1.597-2.592 5.476-8.538 8.621-13.213 3.144-4.675 7.085-11.22 8.757-14.544 4.024-8.002 8.449-12.176 14.891-14.049 12.233-3.556 21.304 4.241 21.322 18.328.005 3.158-1.279 6.685-5.048 13.868-2.78 5.298-5.756 10.704-6.615 12.015L212.77 256h11.836l2.255-7c2.088-6.484 4.139-9.162 4.139-5.404 0 .878.707 4.028 1.571 7 1.344 4.624 1.921 5.404 4 5.404 1.336 0 2.429-.196 2.429-.437 0-.24-.904-4.177-2.008-8.75-1.105-4.572-2.265-12.026-2.579-16.563-.478-6.91-.328-8.25.925-8.25.822 0 2.345-1.167 3.384-2.593l1.889-2.593 2.598 3.926c3.881 5.865 5.84 12.537 7.27 24.76 1.135 9.7 1.301 10.272 1.404 4.838.23-12.114-3.634-26.379-8.528-31.489-3.173-3.312-2.826-6.459.67-6.083 2.27.245 2.227.152-.525-1.122-1.65-.764-4.125-2.627-5.5-4.139l-2.5-2.751 4.21 2.123c2.316 1.168 5.016 2.084 6 2.037 1.21-.058.979-.333-.71-.849-5.008-1.529-11.61-5.446-16.358-9.706-2.672-2.398-5.485-4.359-6.25-4.359-2.14 0-1.705-1.472 2.27-7.685 5.909-9.238 18.853-36.916 22.8-48.754 4.885-14.65 6.832-27.75 6.846-46.061.014-18.57-1.403-24.964-8.928-40.278-5.487-11.165-12.295-19.868-23.201-29.658-8.562-7.686-25.214-16.182-37.298-19.03-7.066-1.666-21.029-1.846-27.689-.357m-.134 2.219c-5.212 1.883-1.411 2.792 6.744 1.612 3.684-.532 9.623-1.022 13.198-1.088 4.792-.088 5.843-.33 4-.92-3.909-1.252-20.124-.984-23.942.396m27.755 1.287c.721.289 1.584.253 1.916-.079.332-.332-.258-.568-1.312-.525-1.165.048-1.402.285-.604.604m-42.712 2.403c-6.266 2.507-19.753 11.689-25.533 17.384-17.304 17.051-25.622 34.789-25.526 54.44.04 8.378.128 8.688 3.558 12.574 1.934 2.192 3.246 3.278 2.914 2.414-.449-1.171-.019-1.523 1.692-1.386 1.262.102 2.667-.309 3.122-.914.475-.629.635.11.374 1.728-.699 4.351.755 1.777 2.16-3.826 1.252-4.987 2.618-7.354 3.649-6.322.3.3.055 1.833-.544 3.408-1.97 5.182-2.304 25.035-.604 35.914 1.528 9.779 5.201 23.577 4.126 15.5-.257-1.925-.76-10.728-1.119-19.562-.535-13.159-.327-17.949 1.155-26.5.994-5.741 1.88-11.447 1.968-12.681.087-1.233.431-2.515.764-2.848.333-.332.381-1.189.107-1.903-.538-1.401 5.187-13.496 6.4-13.522.405-.008 1.861-2.325 3.236-5.148C126.35 52.011 133.979 43 135.714 43c.434 0 1.914 2.133 3.288 4.741C141.672 52.807 159.768 72 161.875 72c.85 0 .628-.896-.681-2.75-4.996-7.073-11.973-24.185-9.41-23.08.422.181 5.839 5.828 12.038 12.548 11.456 12.418 27.046 25.272 30.678 25.294 4.1.024 12.839 2.951 16.606 5.561 5.954 4.127 4.655 4.402-3.106.657-10.305-4.971-12.184-3.589-2.19 1.611 5.807 3.021 8.655 4.015 9.493 3.313.658-.551 4.122-4.615 7.697-9.03 3.575-4.416 7.047-8.05 7.715-8.076 2.665-.105 3.544-4.343 3.034-14.621-.395-7.97-1.026-11.293-2.86-15.075-1.985-4.093-7.925-12.629-9.988-14.352l-4.75-3.965c-2.283-1.906-4.151-3.804-4.151-4.219 0-1.13 3.098.183 6.683 2.832 4.317 3.19 4.857 2.961 2.399-1.016-2.451-3.966-2.676-5.37-.582-3.632.838.695 1.5.803 1.5.244 0-.55-2.366-2.63-5.259-4.622-5.056-3.482-7.418-4.526-6.356-2.808.276.447-1.74.525-4.481.174-3.697-.475-4.864-.327-4.52.571.461 1.202-2.401.589-7.884-1.689-2.203-.915-13.827-3.938-22.667-5.895-3.259-.722-7.746-.979-10.56-.606-3.218.427-6.585.136-9.833-.849-5.658-1.716-5.193-1.692-8.339-.434m-10.496 42.217C128.624 54.28 118.001 74.504 118 76.202c0 .164 3.763.142 8.362-.049 6.442-.267 9.14.047 11.75 1.371C142.195 79.593 145 81.95 145 83.31c0 .55-.787.287-1.75-.584-.963-.87-4-2.558-6.75-3.75-4.027-1.746-6.321-2.077-11.786-1.703-3.732.256-7.052.732-7.378 1.058-1.299 1.299-4.382 16.768-5.335 26.769-1.037 10.878-.006 28.044 2.073 34.533.601 1.875 5.115 7.133 11.245 13.097 14.741 14.342 30.866 23.313 39.412 21.926 4.533-.735 18.123-7.382 29.798-14.573 15.021-9.252 15.294-9.573 18.582-21.829 3.837-14.302 6.333-30.072 5.48-34.62-.65-3.467-1.235-3.938-10.889-8.772-5.611-2.81-11.396-5.953-12.856-6.985-2.898-2.049-7.543-2.398-12.603-.947-1.789.513-3.243.541-3.243.061 0-.477 2.025-1.172 4.5-1.543s4.5-.982 4.5-1.356c0-.375-2.277-2.417-5.06-4.54-2.783-2.122-10.507-9.641-17.164-16.708-6.656-7.068-12.283-12.67-12.503-12.451-.461.461 6.385 14.077 10.235 20.357 1.433 2.338 2.218 4.25 1.744 4.25-.473 0-3.024-1.372-5.667-3.048-5.847-3.709-14.395-12.523-19.349-19.952-2.018-3.025-3.908-5.813-4.202-6.197-.294-.383-2.287 1.642-4.429 4.5m92.145 37.659c-4.262 4.976-7.75 9.201-7.75 9.39 0 .189 1.817 1.164 4.038 2.165 3.936 1.775 4.071 1.773 5.391-.098.744-1.056 3.674-4.816 6.511-8.357 5.844-7.296 6.546-11.33 2.06-11.854-2.06-.24-3.864 1.3-10.25 8.754M46 83.126c-18.791 3.046-34.256 19.96-35.694 39.039-1.715 22.745 13.642 42.089 36.531 46.014 25.383 4.353 49.288-16.29 49.288-42.561 0-26.582-23.801-46.759-50.125-42.492m77.942 6.769c-3.865 1.253-6.942 3.066-6.942 4.091 0 .504 1.912.048 4.25-1.013s5.122-1.939 6.187-1.951c1.746-.02 1.678.249-.686 2.728-6.39 6.698-6.197 16.417.394 19.825 6.814 3.524 12.614.358 15.506-8.463 1.905-5.811 1.922-6.282.324-8.875-3.048-4.941-5.691-6.557-11.24-6.873-2.879-.164-6.386.075-7.793.531m127.823 1.355c-.247.688-.535 4.175-.639 7.75-.277 9.477-4.852 31.97-8.848 43.5-5.917 17.072-23.112 49.885-25.634 48.917-1.689-.648-5.157 3.148-3.699 4.049 1.718 1.062 6.125-3.065 9.874-9.249 6.049-9.978 17.938-35.302 22.167-47.217 4.609-12.983 6.513-22.639 7.543-38.25.65-9.838.413-12.776-.764-9.5M30.671 94.152c-.912 3.485 1.405 7.255 4.823 7.847 2.566.444 3.065 1.063 3.635 4.508.363 2.196.525 4.138.36 4.315-.165.178-1.695.543-3.4.811-1.704.269-4.559 1.822-6.344 3.452-2.977 2.719-3.294 3.602-3.844 10.689-.691 8.919.469 16.227 3.091 19.465 1.554 1.919 2.79 2.26 8.17 2.256 9.531-.008 12.961-2.363 14.632-10.045 2.209-10.16 2.482-14.083 1.241-17.842-1.352-4.098-6.584-8.608-9.986-8.608-1.769 0-2.102-.382-1.527-1.75.404-.963.955-2.763 1.223-4 .365-1.684 1.195-2.25 3.3-2.25 3.422 0 5.575-1.991 6.447-5.965 1.232-5.608-1.695-6.98-3.463-1.623-1.026 3.11-2.673 4.588-5.111 4.588-.505 0-.918-1.8-.918-4 0-5.374-2.514-5.443-3.369-.093-.526 3.289-.942 3.824-2.628 3.384-1.85-.484-2.127-1.092-2.407-5.278-.165-2.463-3.274-2.353-3.925.139m35.364-.218C65.466 94.998 65 97.279 65 99.004c0 2.679-.327 3.089-2.25 2.816-1.769-.252-2.357-1.128-2.75-4.103-.633-4.791-2.4-4.897-2.815-.168-.354 4.046.959 6.184 4.079 6.641 1.447.212 2.39 1.364 2.977 3.641.711 2.762 1.106 3.126 2.309 2.128.797-.662 1.45-2.049 1.45-3.081 0-1.259.742-1.903 2.25-1.952 2.84-.094 7.006-.849 7.52-1.363.888-.888.653-9.089-.27-9.404-.55-.188-1.382 1.274-1.849 3.25-.734 3.101-1.246 3.591-3.75 3.591-2.771 0-2.901-.201-2.901-4.5 0-4.741-1.231-5.806-2.965-2.566m60.411 3.153c-.945 1.529 1.106 3.299 2.987 2.577.862-.331 1.567-1.29 1.567-2.133 0-1.747-3.535-2.092-4.554-.444m100.638 3.533c-1.339 1.703-2.716 2.448-3.934 2.13-1.679-.44-1.936.325-2.479 7.365-.702 9.098-4.779 28.058-8.224 38.24-1.311 3.873-2.217 7.209-2.014 7.412.565.564 5.938-13.876 10.123-27.206 2.457-7.824 4.558-12.689 6.096-14.115 1.292-1.196 2.348-2.461 2.348-2.811 0-.349.9-1.535 2-2.635 2.211-2.211 2.497-4.564 1.025-8.435-1.234-3.246-2.354-3.233-4.941.055m-124.924.674c-1.116 1.356-1.119 2.263-.016 5.417 1.28 3.663 1.335 3.697 1.656 1.039.183-1.513.19-3.95.016-5.418-.282-2.384-.458-2.494-1.656-1.038m84.569-.086c-2.073.55-4.227 1.854-4.785 2.896-.558 1.043-.886 1.889-.729 1.881.157-.008 2.085-.664 4.285-1.456 5.963-2.148 7.246-1.953 4.741.721-4.273 4.561-5.209 9.908-2.671 15.257 1.899 4.001 6.108 5.964 10.872 5.07 4.936-.926 7.55-4.966 7.59-11.731.029-4.918.149-5.191 1.5-3.405 1.43 1.891 1.468 1.882 1.468-.327 0-3.128-4.863-7.705-9.579-9.014-4.616-1.282-7.551-1.257-12.692.108M125 107.427c0 2.137 4.898 5.573 7.944 5.573 1.47 0 3.547-.707 4.615-1.57 1.833-1.483 1.737-1.543-1.72-1.078-2.815.379-4.418-.066-6.944-1.929-3.85-2.841-3.895-2.852-3.895-.996m66.014-.435c-1.815 1.121-.414 4.232 1.721 3.82.958-.184 1.882-1.061 2.053-1.948.365-1.898-1.908-3.026-3.774-1.872m-133.629 9.536c-.672 2.148-.739 3.754-.17 4.105.523.323.812 6.022.657 12.936-.153 6.797.025 12.662.397 13.033C59.691 148.025 61 141.508 61 133c0-9.624 1.086-14 3.475-14 .839 0 1.551.112 1.584.25.032.138.284 4.75.559 10.25.557 11.135.909 12.911 2.375 12.004.577-.357 1.007-5.324 1.007-11.646 0-8.372.301-10.926 1.25-10.615 2.119.695 3.933 7.922 3.516 14.008-.48 7.008-2.741 9.725-13.766 16.538-10.61 6.558-13.823 9.264-14.998 12.636-1.919 5.504.56 5.034 7.155-1.355 3.489-3.38 8.818-7.41 11.843-8.955 14.167-7.238 14.478-7.738 13.783-22.167-.423-8.8-.767-10.303-2.872-12.543-2.189-2.33-2.863-2.491-7.965-1.899-4.419.513-5.845.32-6.882-.929-1.895-2.283-2.445-1.991-3.679 1.951m-13.916 1.222c1.005 4.035 3.625 9.25 4.645 9.25 2.155 0 .072-9.625-2.427-11.214-2.213-1.408-2.906-.795-2.218 1.964m184.111-1.234c-2.593 1.962-8.964 23.62-7.266 24.699 3.149 2.002 8.367-.106 13.316-5.38 6.427-6.848 7.278-13.08 2.447-17.912-3.22-3.22-5.583-3.611-8.497-1.407M31.259 118.25c-1.354 1.716-2.495 9.75-1.385 9.75 1.212 0 4.126-6.287 4.126-8.901 0-2.351-1.251-2.738-2.741-.849m6.333 2.898c-.494 3.088-1.676 5.073-4.627 7.772C30.2 131.447 29 133.369 29 135.272c0 3.375 1.091 3.418 5.785.228 4.714-3.203 5.678-3.146 8.373.5 2.255 3.05 4.232 3.796 5.334 2.012.336-.543-1.212-4.109-3.441-7.924-2.228-3.815-4.051-7.609-4.051-8.431 0-2.121-1.078-4.657-1.979-4.657-.421 0-1.064 1.867-1.429 4.148M190 119.893c0 3.12 6.083 5.164 10.418 3.5 2.775-1.065 1.709-1.995-2.577-2.247-2.287-.135-4.987-.689-6-1.231-1.166-.624-1.841-.632-1.841-.022m39 .024c0 .596.441 1.083.981 1.083.539 0 1.248 1.065 1.575 2.367.428 1.705-.127 3.146-1.981 5.146-3.306 3.568-3.367 5.58-.075 2.487 2.322-2.182 2.501-2.212 2.515-.424.013 1.608.175 1.678.985.424 1.333-2.063 1.216-6.02-.265-8.921-1.313-2.573-3.735-3.975-3.735-2.162m-79.756 12.065c-1.847 2.957-1.56 3.712 1.868 4.907 2.653.925 2.937.875 1.93-.338-.649-.783-1.49-2.579-1.868-3.992-.664-2.484-.728-2.503-1.93-.577m-.244 1.9c0 .55.45 1.278 1 1.618.55.34 1 .168 1-.382s-.45-1.278-1-1.618c-.55-.34-1-.168-1 .382m-42.933 1.219c-.077 1.841 1.994 8.172 2.505 7.66.188-.187-.284-2.348-1.049-4.801-.764-2.453-1.419-3.74-1.456-2.859m-71.335 3.435c-2.053 1.395-3.732 2.926-3.732 3.402 0 .881 5.391 3.088 7.399 3.03.606-.017 1.932-.661 2.948-1.431 1.787-1.354 1.788-1.499.035-4.468-.997-1.688-2.062-3.069-2.365-3.069-.304 0-2.232 1.141-4.285 2.536m66.728 8.766c-.751 2.995.768 8.374 4.081 14.448 1.275 2.338 1.896 4.25 1.379 4.25-.516 0-2.393-3.037-4.17-6.75-1.777-3.713-3.397-6.975-3.6-7.25-.203-.275-1.107.614-2.009 1.976-.903 1.362-2.933 3.959-4.513 5.771l-2.871 3.294 2.757 3.98c1.851 2.671 3.508 3.979 5.04 3.979 1.255 0 3.068.301 4.028.67 1.28.491 1.529.318.933-.646-.621-1.005-.222-1.167 1.687-.688 1.376.345 2.774.355 3.107.022.863-.863-6.255-5.509-7.378-4.816-1.344.831-1.144 3.205.319 3.796.979.395.972.521-.031.583-2.017.124-2.651-2.917-.962-4.607 1.375-1.374 1.823-1.326 4.387.475 2.085 1.464 3.866 1.87 6.594 1.501l3.738-.506-3.909-5.642c-2.149-3.103-4.47-7.667-5.156-10.142-1.614-5.818-2.642-6.92-3.451-3.698m38.54.59c0 .49 1.083 1.163 2.407 1.495 1.324.333 3.237.859 4.25 1.17 1.014.311.268-.343-1.657-1.454-3.91-2.256-5-2.52-5-1.211m9.813 3.791c.721.289 1.584.253 1.916-.079.332-.332-.258-.568-1.312-.525-1.165.048-1.402.285-.604.604m20.937-.021c.688.278 1.813.278 2.5 0 .688-.277.125-.504-1.25-.504s-1.937.227-1.25.504m-6.5 1.027c.963.252 2.537.252 3.5 0 .963-.251.175-.457-1.75-.457s-2.713.206-1.75.457m41.741 2.228c-.83.87-2.855 2.617-4.5 3.881l-2.991 2.299 3.25-1.574c1.787-.866 3.268-1.225 3.29-.799.022.427.732-.501 1.578-2.062 1.785-3.293 1.528-4.007-.627-1.745M230 164.559c0 .857.45 1.281 1 .941.55-.34 1-1.041 1-1.559s-.45-.941-1-.941-1 .702-1 1.559M112.659 172c1.631 2.76 4.341 4.118 4.341 2.174 0-1.001-4.331-5.174-5.371-5.174-.408 0 .055 1.35 1.03 3m30.296 1.167c-.025 2.383-.681 5.683-1.459 7.333-1.412 2.997-1.413 2.997-.847.25l.568-2.75h-8.109c-6.54 0-8.108-.29-8.108-1.5 0-.825-.36-1.5-.8-1.5-2.175 0-3.2 2.929-3.2 9.143 0 6.995 2.278 12.786 6.142 15.615.945.691 2.269 3.72 2.943 6.729.673 3.009 2.644 8.069 4.38 11.242 2.727 4.988 3.962 6.161 9.095 8.643 5.871 2.839 6.033 2.858 13.926 1.662 10.392-1.574 16.873-4.298 28.632-12.033 7.655-5.035 10.462-7.57 13.75-12.419 4.492-6.623 4.84-7.582 2.754-7.582-.757 0-1.951-.691-2.652-1.536-1.125-1.356-.757-1.46 3.128-.889l4.402.647-6-3.666c-3.3-2.016-9.474-7.105-13.72-11.308-4.246-4.203-7.957-7.404-8.248-7.114-.29.291-.804 3.192-1.142 6.447-.72 6.922.083 8.039 8.11 11.287 2.75 1.113 4.325 2.033 3.5 2.045-.825.013-3.975-1.2-7-2.695l-5.5-2.718v-7.251c0-7.949-.286-8.23-5.596-5.499-5.544 2.85-14.22 2.343-21.392-1.25-3.293-1.65-6.33-3.15-6.75-3.333-.419-.184-.782 1.616-.807 4m-4.205.2c-3.415 2.742-3.468 3.633-.219 3.633 2.59 0 3.899-1.729 3.304-4.362-.27-1.189-.873-1.046-3.085.729m-67.956 17.164c-6.653 5.318-16.794 17.563-20.338 24.556-3.573 7.05-5.456 15.262-5.456 23.79 0 7.958.567 8.918 1.563 2.648C47.81 233.678 51.851 225 54.258 225c4.249 0 8.007-3.333 14.716-13.053 3.477-5.037 11.412-11.711 13.276-11.166 1.385.405.766-3.522-.754-4.784-.987-.819-1.417-2.667-1.25-5.373.36-5.846-2.224-5.871-9.452-.093m122.019 2.152c.721.289 1.584.253 1.916-.079.332-.332-.258-.568-1.312-.525-1.165.048-1.402.285-.604.604m24.105 3.276l-2.418 2.052 2.75-.981c2.566-.915 2.751-.798 2.765 1.745.017 3.167 1.962 7.395 3.66 7.954 1.564.516-1.03-9.513-2.961-11.443-1.171-1.171-1.742-1.07-3.796.673m6.082.629c0 .415.745 1.577 1.655 2.583 1.079 1.192 1.232 1.829.441 1.829-.668 0-.931.457-.586 1.016.346.559 1.005.784 1.465.499.461-.284 2.679 1.683 4.931 4.373 2.915 3.481 4.094 5.809 4.094 8.08 0 3.025-.156 3.157-3 2.532-1.65-.362-2.993-.286-2.985.171.031 1.684 1.555 2.844 4.126 3.14 1.962.225 3.142-.418 4.587-2.504 3.752-5.412 3.646-5.719-4.847-13.998-7.847-7.649-9.881-9.238-9.881-7.721m-5.349 2.88c-.31.807-.133 1.734.393 2.059.526.325.956-.336.956-1.468 0-2.415-.556-2.658-1.349-.591M214.5 200c.34.55.816 1 1.059 1s.441-.45.441-1-.477-1-1.059-1-.781.45-.441 1m11.532 5.715c.017.432.692 1.659 1.5 2.726.807 1.068 1.468 2.739 1.468 3.715 0 1.524 2.676 3.844 4.434 3.844 1.335 0 .399-3.942-1.512-6.371-2.171-2.761-5.945-5.268-5.89-3.914m26.172 5.33c-.672 1.075-.815 1.955-.319 1.955.897 0 2.443-3.005 1.851-3.598-.172-.171-.861.568-1.532 1.643m-66.704 6.66c-8.627 6.002-17.885 9.957-26.632 11.378-8.016 1.301-8.142 1.365-5.29 2.668l2.922 1.335-3-.59c-1.65-.325-4.134-1.406-5.519-2.403-3.03-2.179-6.983-3.545-6.977-2.41.003.449 1.376 2.842 3.053 5.317 1.676 2.475 3.933 6.188 5.016 8.25 1.843 3.513 2.261 3.75 6.617 3.75 4.04 0 5.839-.804 13.73-6.134 14.415-9.738 17.056-12.169 18.5-17.033.708-2.383 1.754-4.906 2.326-5.607 2.06-2.526.159-1.933-4.746 1.479m45.752 9.795c.011 2.2.216 2.982.455 1.738.239-1.244.23-3.044-.02-4s-.446.062-.435 2.262m-119.135 0c-.026 1.1.597 3.125 1.383 4.5 1.835 3.21 1.863.489.036-3.5-1.063-2.323-1.384-2.548-1.419-1m120.041 7.5c0 1.375.227 1.938.504 1.25.278-.687.278-1.812 0-2.5-.277-.687-.504-.125-.504 1.25" fill="#1976D2" fill-rule="evenodd"/></svg>